<?xml version="1.0" encoding="utf-8"?>
<!-- Generator: Adobe Illustrator 16.0.0, SVG Export Plug-In . SVG Version: 6.00 Build 0)  -->
<!DOCTYPE svg PUBLIC "-//W3C//DTD SVG 1.1//EN" "http://www.w3.org/Graphics/SVG/1.1/DTD/svg11.dtd">
<svg version="1.1" id="Layer_1" xmlns="http://www.w3.org/2000/svg" xmlns:xlink="http://www.w3.org/1999/xlink" x="0px" y="0px"
	 width="43.832px" height="52.5px" viewBox="0 0 43.832 52.5" enable-background="new 0 0 43.832 52.5" xml:space="preserve">
<g>
	<rect x="32.141" y="11.013" fill="#FFFFFF" width="3.385" height="14.699"/>
	<path fill="#FFFFFF" d="M38.922,0.72H5.754c-1.869,0-3.397,1.529-3.397,3.397v0.101c0-1.868,1.528-3.397,3.397-3.397h33.168
		c1.868,0,3.396,1.529,3.396,3.397V4.117C42.318,2.25,40.79,0.72,38.922,0.72z"/>
	<polygon fill="#FFFFFF" points="21.933,19.151 12.591,19.152 12.591,11.013 9.151,11.013 9.151,30.59 12.591,30.59 12.591,22.341 
		21.933,22.341 21.933,30.59 25.373,30.59 25.373,11.012 21.933,11.012 	"/>
	<rect x="32.141" y="27.6" fill="#FFFFFF" width="3.385" height="2.99"/>
	
		<linearGradient id="SVGID_1_" gradientUnits="userSpaceOnUse" x1="-651.6064" y1="-5.416" x2="-651.4653" y2="-5.416" gradientTransform="matrix(0 354.3308 -354.3308 0 -1888.4902 230885.0625)">
		<stop  offset="0" style="stop-color:#0AD2E1"/>
		<stop  offset="1" style="stop-color:#0080A6"/>
	</linearGradient>
	<path fill="url(#SVGID_1_)" d="M38.922,40.682H19.141v0.101h19.781c1.868,0,3.396-1.528,3.396-3.396v-0.101
		C42.318,39.154,40.79,40.682,38.922,40.682z"/>
	
		<linearGradient id="SVGID_2_" gradientUnits="userSpaceOnUse" x1="-651.6064" y1="-5.3594" x2="-651.4653" y2="-5.3594" gradientTransform="matrix(0 354.3308 -354.3308 0 -1888.4902 230885.0625)">
		<stop  offset="0" style="stop-color:#0AD2E1"/>
		<stop  offset="1" style="stop-color:#0080A6"/>
	</linearGradient>
	<path fill="url(#SVGID_2_)" d="M18.663,50.672h-0.007c-0.184-0.002-0.407-0.117-0.646-0.357l-8.86-9.633H5.754
		c-1.869,0-3.397-1.527-3.397-3.396v0.101c0,1.868,1.528,3.396,3.397,3.396H9.15l8.86,9.633c0.239,0.239,0.462,0.354,0.646,0.356
		h0.007c0.289-0.002,0.478-0.289,0.478-0.824v-0.1C19.141,50.383,18.952,50.67,18.663,50.672z"/>
	<path fill="#FFFFFF" d="M38.922,0.821H5.754c-1.869,0-3.397,1.529-3.397,3.397v33.067c0,1.869,1.528,3.396,3.397,3.396H9.15
		l8.86,9.633c0.239,0.24,0.462,0.355,0.646,0.357h0.007c0.289-0.002,0.478-0.289,0.478-0.824v-9.065v-0.101h19.781
		c1.868,0,3.396-1.527,3.396-3.396V4.218C42.318,2.35,40.79,0.821,38.922,0.821z M25.373,30.59h-3.44v-8.249h-9.342v8.249h-3.44
		V11.013h3.44v8.139l9.342-0.001v-8.139h3.44V30.59z M35.525,30.59h-3.385V27.6h3.385V30.59z M35.525,25.712h-3.385V11.013h3.385
		V25.712z"/>
	
		<linearGradient id="SVGID_3_" gradientUnits="userSpaceOnUse" x1="-651.6064" y1="-5.3926" x2="-651.4653" y2="-5.3926" gradientTransform="matrix(0 354.3308 -354.3308 0 -1888.4902 230885.0625)">
		<stop  offset="0" style="stop-color:#0AD2E1"/>
		<stop  offset="1" style="stop-color:#0080A6"/>
	</linearGradient>
	<path fill="url(#SVGID_3_)" d="M38.922,0.821H5.754c-1.869,0-3.397,1.529-3.397,3.397v33.067c0,1.869,1.528,3.396,3.397,3.396H9.15
		l8.86,9.633c0.239,0.24,0.462,0.355,0.646,0.357h0.007c0.289-0.002,0.478-0.289,0.478-0.824v-9.065v-0.101h19.781
		c1.868,0,3.396-1.527,3.396-3.396V4.218C42.318,2.35,40.79,0.821,38.922,0.821z M25.373,30.59h-3.44v-8.249h-9.342v8.249h-3.44
		V11.013h3.44v8.139l9.342-0.001v-8.139h3.44V30.59z M35.525,30.59h-3.385V27.6h3.385V30.59z M35.525,25.712h-3.385V11.013h3.385
		V25.712z"/>
</g>
</svg>
