<?xml version="1.0" encoding="utf-8"?>
<!-- Generator: Adobe Illustrator 16.0.0, SVG Export Plug-In . SVG Version: 6.00 Build 0)  -->
<!DOCTYPE svg PUBLIC "-//W3C//DTD SVG 1.1//EN" "http://www.w3.org/Graphics/SVG/1.1/DTD/svg11.dtd">
<svg version="1.1" id="Layer_1" xmlns="http://www.w3.org/2000/svg" xmlns:xlink="http://www.w3.org/1999/xlink" x="0px" y="0px"
	 width="400px" height="100px" viewBox="0 0 400 100" enable-background="new 0 0 400 100" xml:space="preserve">
<g>
	<rect x="51.798" y="20.662" fill="#E63312" width="133.964" height="1.998"/>
</g>
<g>
	<path fill="#1D1D1B" d="M51.856,3.946c0.102,1.377,0.174,4.824,0.174,6.091c0,1.153-0.013,5.035-0.192,6.715l-0.017,0.136
		l6.077,0.003c2.966,0,6.136-0.941,6.136-3.585c0-1.662-1.204-2.889-3.45-3.561c1.647-0.438,2.771-1.584,2.771-2.901
		c0-2.151-2.484-2.974-4.805-3.023c-0.006,0-6.706-0.005-6.706-0.005L51.856,3.946z M56.549,5.276
		c2.538,0.007,3.481,0.529,3.481,1.916c0,0.371-0.115,0.693-0.341,0.963c-0.484,0.583-1.449,0.882-2.652,0.822h-0.058l-0.7,1.837
		h0.709c1.397-0.043,2.613,0.396,3.232,1.161c0.291,0.351,0.434,0.75,0.434,1.182c0,1.454-1.27,2.195-3.771,2.195
		c-0.419,0-1.1-0.002-1.533-0.029c-0.09-1.914-0.095-4.516-0.095-5.287c0-0.915,0.038-2.947,0.1-4.68
		C55.635,5.309,56.114,5.269,56.549,5.276z"/>
	<path fill="#1D1D1B" d="M78.038,3.816h-2.946l0.123,3.285c0.055,1.64,0.107,3.312,0.218,4.933l0,0l0,0
		c-0.203-0.492-0.366-0.766-1.249-2.067c-0.028-0.045-3.09-4.779-4.156-6.116l-0.029-0.034H66.56l0.01,0.125
		c0.097,1.374,0.17,4.818,0.17,6.091c0,1.156-0.012,5.041-0.19,6.718l-0.015,0.136h3.051l-0.006-0.129
		c-0.179-3.2-0.179-6.417-0.179-9.528V7.22c0.103,0.375,0.25,0.714,0.729,1.428c0.05,0.08,5.292,7.733,5.56,8.187l0.027,0.052h2.454
		l-0.017-0.136c-0.18-1.68-0.192-5.562-0.192-6.718c0-1.272,0.075-4.719,0.172-6.091l0.009-0.125L78.038,3.816L78.038,3.816z"/>
	<path fill="#1D1D1B" d="M81.588,3.94c0.1,1.381,0.171,4.823,0.171,6.092c0,1.156-0.014,5.038-0.192,6.715l-0.01,0.134h3.636
		l-0.014-0.134c-0.128-1.196-0.172-3.492-0.188-5.265c0.15,0.008,0.667,0.034,0.667,0.034l0.513,0.025
		c4.795,0,7.122-1.285,7.122-3.937c0-3.03-3.264-3.733-6-3.79L81.581,3.81L81.588,3.94z M86.043,5.384
		c1.703-0.027,2.901,0.325,3.477,1.031c0.257,0.324,0.392,0.722,0.392,1.19c0,1.891-2.119,2.291-3.895,2.291L85.294,9.87
		c0,0-0.175-0.025-0.288-0.042c-0.01-0.434-0.016-1-0.016-1.653c0-0.831,0.012-1.794,0.042-2.701
		C85.256,5.428,85.653,5.394,86.043,5.384z"/>
	<path fill="#1D1D1B" d="M100.243,3.94c0.102,1.381,0.172,4.823,0.172,6.092c0,1.156-0.014,5.038-0.194,6.715l-0.012,0.134h3.641
		l-0.019-0.134c-0.121-1.196-0.17-3.492-0.186-5.265c0.151,0.008,0.664,0.034,0.664,0.034l0.516,0.025
		c4.793,0,7.125-1.285,7.125-3.937c0-3.03-3.266-3.733-6.006-3.79l-5.705-0.004L100.243,3.94z M104.698,5.384
		c1.701-0.027,2.903,0.325,3.48,1.031c0.254,0.324,0.387,0.722,0.387,1.19c0,1.891-2.115,2.291-3.895,2.291l-0.72-0.026
		c0,0-0.178-0.024-0.287-0.042c-0.014-0.434-0.021-1.004-0.021-1.661c0-0.833,0.015-1.786,0.046-2.693
		C103.913,5.428,104.311,5.394,104.698,5.384z"/>
	<path fill="#1D1D1B" d="M116.823,3.82h-0.061l-0.027,0.07c-0.675,1.856-5.027,11.363-5.707,12.82l-0.08,0.181h3.117l0.021-0.076
		c0.271-0.892,0.623-1.904,1.033-2.997c0.113-0.003,2.576-0.04,2.576-0.04l2.123,0.025c0,0,0.377,0.012,0.469,0.012
		c0.561,1.408,0.978,2.477,1.162,3.003l0.025,0.073h3.613l-5.82-13.071h-0.058H116.823z M117.71,7.67
		c0.29,0.61,1.037,2.367,1.875,4.43c-0.126,0.001-0.272,0.007-0.272,0.007l-1.603,0.022c0,0-1.656-0.028-1.914-0.037
		C116.471,10.434,117.138,8.938,117.71,7.67z"/>
	<path fill="#1D1D1B" d="M126.53,3.941c0.094,1.374,0.174,4.821,0.174,6.091c0,1.156-0.016,5.038-0.198,6.715l-0.015,0.139h3.641
		l-0.014-0.136c-0.184-1.686-0.192-5.562-0.192-6.718c0-0.91,0.039-2.946,0.103-4.565c0.299-0.039,0.707-0.073,0.98-0.077
		c1.702-0.032,2.902,0.326,3.479,1.031c0.262,0.319,0.395,0.717,0.395,1.185c0,1.506-1.419,2.269-2.74,2.342
		c-0.433,0.019-0.77-0.039-0.771-0.039l-0.25-0.043l0.16,0.233c1.275,1.887,3.211,5.172,4.027,6.737l0.03,0.056h3.896l-0.113-0.195
		c-0.135-0.212-2.688-3.956-3.773-5.557c0,0-0.039-0.054-0.07-0.098c1.984-0.596,2.961-1.724,2.961-3.436
		c0-3.028-3.271-3.729-6.009-3.785l-5.711-0.005L126.53,3.941z"/>
	<path fill="#1D1D1B" d="M144.405,3.805h-3.488l0.012,0.127c0.102,1.383,0.174,4.83,0.174,6.096c0,1.152-0.017,5.03-0.197,6.714
		l-0.012,0.134h3.639l-0.019-0.134c-0.174-1.684-0.192-5.562-0.192-6.714c0-1.269,0.078-4.715,0.172-6.096l0.015-0.127H144.405z"/>
	<path fill="#1D1D1B" d="M147.806,3.946c0.102,1.375,0.172,4.824,0.172,6.091c0,1.153-0.014,5.035-0.191,6.715l-0.014,0.136
		l6.073,0.003c2.97,0,6.14-0.941,6.14-3.585c0-1.662-1.203-2.889-3.455-3.561c1.652-0.438,2.774-1.584,2.774-2.901
		c0-2.151-2.478-2.974-4.808-3.023l-6.701-0.005L147.806,3.946z M152.502,5.276L152.502,5.276c2.534,0.007,3.481,0.529,3.481,1.916
		c0,0.371-0.119,0.693-0.346,0.963c-0.479,0.583-1.447,0.882-2.648,0.822h-0.066l-0.693,1.837h0.711
		c1.4-0.043,2.604,0.396,3.229,1.161c0.288,0.351,0.433,0.751,0.433,1.182c0,1.454-1.267,2.195-3.765,2.195
		c-0.429,0-1.11-0.002-1.54-0.029c-0.088-1.914-0.096-4.516-0.096-5.287c0-0.917,0.039-2.952,0.105-4.68
		C151.584,5.309,152.063,5.269,152.502,5.276z"/>
	<path fill="#1D1D1B" d="M168.931,3.805h-2.449l-0.025,0.071c-0.717,1.976-5.326,11.999-5.709,12.824l-0.084,0.176h3.125
		l0.021-0.075c0.268-0.893,0.62-1.901,1.03-2.998c0.112-0.005,2.573-0.039,2.573-0.039l2.132,0.029c0,0,0.371,0.005,0.465,0.01
		c0.565,1.408,0.976,2.468,1.158,3.001l0.024,0.071h3.611l-5.818-13.071L168.931,3.805L168.931,3.805z M167.429,7.656
		c0.29,0.617,1.03,2.364,1.877,4.424c-0.126,0.002-0.271,0.012-0.271,0.012l-1.607,0.026c0,0-1.648-0.036-1.911-0.038
		C166.188,10.417,166.854,8.928,167.429,7.656z"/>
	<path fill="#1D1D1B" d="M175.821,7.2c0,2.296,2.316,3.225,4.353,4.054c1.587,0.638,3.224,1.306,3.224,2.396
		c0,0.336-0.076,0.602-0.254,0.807c-0.375,0.449-1.156,0.639-2.386,0.58c-1.197-0.059-2.574-0.448-4.095-1.152l-0.637-0.292
		l0.006,0.503v2.35l0.412,0.087l0.248,0.054c0.771,0.184,2.219,0.529,3.688,0.529c3.835,0,6.125-1.521,6.125-4.058
		c0-2.355-2.363-3.298-4.449-4.129c-1.543-0.615-3.13-1.249-3.13-2.252c0-0.295,0-1.17,1.972-1.17c1.475,0,2.918,0.6,3.698,0.923
		l0.748,0.31l-0.007-0.495V3.869l-0.741-0.129c-0.742-0.146-1.979-0.383-3.261-0.383C178.034,3.357,175.821,4.899,175.821,7.2z"/>
</g>
<g>
	<g>
		<g>
			<path fill="#1D1D1B" d="M93.846,26.09v1.82c-1.699-0.122-4.698-0.146-4.72-0.146c-0.267,0-0.539,0-0.765,0.024
				c0,1.015,0,2.255-0.039,3.042l3.825-0.083v1.761h-3.825v0.229c0.017,1.346,0.06,3.229,0.206,4.513H84.82
				c0.166-1.698,0.166-4.888,0.166-5.84c0-1.054-0.041-4.06-0.123-5.318L93.846,26.09L93.846,26.09z"/>
			<path fill="#1D1D1B" d="M101.684,37.562c-3.479,0-6.087-2.385-6.087-5.884c0-3.52,2.607-5.882,6.087-5.882
				c3.458,0,6.068,2.362,6.068,5.882C107.752,35.178,105.142,37.562,101.684,37.562z M101.684,27.229
				c-1.614,0-2.629,1.574-2.629,4.45c0,2.878,1.015,4.409,2.629,4.409c1.595,0,2.589-1.531,2.589-4.409
				C104.272,28.803,103.278,27.229,101.684,27.229z"/>
			<path fill="#1D1D1B" d="M115.872,26.09c2.443,0,5.363,0.87,5.363,3.458c0,1.388-1.035,2.379-2.648,3.021
				c0.328,0.584,3.043,4.101,3.581,4.681h-3.996c-0.705-1.345-2.05-3.661-3.375-5.63c1.594,0.205,2.981-0.559,2.981-2.092
				c0-1.471-1.699-1.905-2.523-1.905c-0.378,0-1.078,0-1.325,0.021c-0.065,1.365-0.085,3.006-0.085,3.746
				c0,0.975,0,4.162,0.186,5.86h-3.726c0.187-1.654,0.229-3.624,0.229-5.86c0-1.884-0.021-4.16-0.188-5.298L115.872,26.09
				L115.872,26.09z"/>
			<path fill="#1D1D1B" d="M133.522,26.09v1.82c-1.638-0.166-2.256-0.245-3.559-0.27c-0.062,1.305-0.087,3.021-0.087,3.746
				c0,0.954,0,4.162,0.209,5.86h-3.749c0.186-1.698,0.209-4.906,0.209-5.86c0-0.703-0.062-2.564-0.062-3.746
				c-1.281,0.023-1.969,0.086-3.602,0.27v-1.82H133.522L133.522,26.09z"/>
			<path fill="#1D1D1B" d="M139.767,26.09c-0.085,1.26-0.145,4.246-0.145,5.318c0,0.994,0,4.308,0.145,5.84h-3.686
				c0.187-1.698,0.207-4.887,0.207-5.84c0-1.053-0.062-4.061-0.146-5.318H139.767L139.767,26.09z"/>
			<path fill="#1D1D1B" d="M147.706,25.797c1.43,0,2.818,0.21,3.688,0.479v2.84c-1.221-0.705-2.42-1.307-4.014-1.307
				c-1.264,0-1.35,0.5-1.35,0.869c0,1.883,6.358,1.902,6.358,5.278c0,2.194-2.052,3.58-5.466,3.58c-1.534,0-2.982-0.31-3.977-0.663
				v-2.71c2.34,1.097,3.58,1.45,4.656,1.45c0.87,0,1.514-0.396,1.514-1.139c0-2.134-6.336-1.927-6.336-5.547
				C142.782,26.938,144.77,25.797,147.706,25.797z"/>
		</g>
	</g>
</g>
<polyline fill="#009966" points="2.052,0.667 42.624,0.667 42.624,40.67 2.052,40.67 "/>
<g>
	<g>
		<path fill="#00945E" d="M33.558,11.477c-2.51,1.448-3.274,1.564-5.998,3.178l0.134-0.301c1.43-1.537,2.048-2.181,2.99-3.542
			c-2.514,0.136-6.163,0.432-8.771,0.997l0,0l0,0l0,0l0.136-0.274c2.368-1.135,6.76-2.263,9-2.555
			c-0.546-0.759-4.995-3.129-6.104-3.588l0,0l0,0l0,0l0.129-0.277c3.375,0.374,7.844,1.929,9.792,3.106
			c0.823-0.253,1.667-0.279,3.192-0.409c0,0-0.228,0.907-1.891,2.033l0,0l0,0l0,0c0.413,1.088-0.578,7.123-1.397,8.723l0,0l0,0l0,0
			C34.732,16.042,34.507,12.858,33.558,11.477z"/>
		<path fill="#00945E" d="M15.228,33.104l0.127-0.289c-1.333-0.504-2.666-0.908-3.743-1.904l0,0l0,0l0,0l0,0l0,0l0,0l0,0l0,0l0,0
			l0,0l0,0l0,0l0,0l0,0l0,0l0,0l0,0l0,0l0,0l0,0l0,0l0,0l0,0l0,0l0,0l0,0l0,0l0,0l0,0l0,0l0,0c0.337-0.936,0.727-1.663,1.359-2.584
			l0,0l0,0l0,0l0,0l0,0l0,0l0,0l0,0l0,0l0,0l0,0l0,0l0,0l0,0l0,0l0,0l0,0l0,0l0,0l0,0l0,0l0,0l0,0l0,0l0,0l0,0l0,0l0,0l0,0l0,0l0,0
			l0.133-0.284c-1.144,0.171-2.182,0.585-3.174,0.776l0,0l0,0l0,0l0,0l0,0l0,0l0,0l0,0l0,0l0,0l0,0l0,0l0,0l0,0l0,0l0,0l0,0l0,0l0,0
			l0,0l0,0l0,0l0,0l0,0l0,0l0,0l0,0l0,0l0,0l0,0l0,0c-0.779-1.354-1.082-3.201-1.475-4.965l-0.129,0.275l0,0l0,0l0,0l0,0l0,0l0,0
			l0,0l0,0l0,0l0,0l0,0l0,0l0,0l0,0l0,0c-0.222,2.018-0.31,3.454-0.021,5.057l0,0l0,0l0,0l0,0l0,0l0,0l0,0l0,0l0,0l0,0l0,0l0,0l0,0
			l0,0l0,0l0,0l0,0l0,0l0,0l0,0l0,0l0,0l0,0l0,0l0,0l0,0l0,0l0,0l0,0l0,0l0,0c-0.825,0.229-1.547,0.26-2.211,0.543L5.969,30l0,0l0,0
			l0,0l0,0l0,0l0,0l0,0l0,0l0,0l0,0l0,0l0,0l0,0l0,0l0,0l0,0l0,0l0,0l0,0l0,0l0,0l0,0l0,0l0,0l0,0l0,0l0,0l0,0l0,0l0,0l0,0
			c1.056,0.639,1.919,1.13,3.115,1.688l0,0l0,0l0,0l0,0l0,0l0,0l0,0l0,0l0,0l0,0l0,0l0,0l0,0l0,0l0,0l0,0l0,0l0,0l0,0l0,0l0,0l0,0
			l0,0l0,0l0,0l0,0l0,0l0,0l0,0l0,0l0,0c0.638,1.348,1.3,2.267,2.373,3.31l0,0l0,0l0,0l0,0l0,0l0,0l0,0l0,0l0,0l0,0l0,0l0,0l0,0l0,0
			l0,0l0,0l0,0l0,0l0,0l0,0l0,0l0,0l0,0l0,0l0,0l0,0l0,0l0,0l0,0l0,0l0,0l0.13-0.284c-0.191-0.762-0.44-1.4-0.346-2.242l0,0l0,0l0,0
			l0,0l0,0l0,0l0,0l0,0l0,0l0,0l0,0l0,0l0,0l0,0l0,0l0,0l0,0l0,0l0,0l0,0l0,0l0,0l0,0l0,0l0,0l0,0l0,0l0,0l0,0l0,0l0,0
			C12.569,32.85,13.71,33.05,15.228,33.104z"/>
		<path fill="#00945E" d="M18.927,13.013c0,0-0.536,0.934-0.966,2.178h-0.104l0,0l0,0c3.126,0.417,6.077,1.664,6.816,2.094
			l-0.131,0.278l0,0l0,0l0,0l0,0l0,0l0,0l0,0c-3.241-0.565-4.95-0.5-6.157-0.395l0,0l0,0l0,0c-1.205,0.117-1.452,0.264-1.452,0.264
			l0,0l0,0l0,0l0,0l0,0l0,0l0,0c-0.693,1.5-1.103,3.948-1.267,4.851l-0.131,0.281l0,0l0,0l0,0l0,0l0,0l0,0l0,0
			c-0.594-1.408-1.448-4.212-1.448-4.212l0,0l0,0l0,0l0,0l0,0l0,0l0,0c-1.634,0.863-5.401,4.349-5.401,4.349l0,0l0,0l0,0l0,0l0,0
			l0,0l0,0c2.076-4.083,4.176-5.944,4.176-5.944l0,0l0,0l0,0l0,0l0,0l0,0l0,0c-0.725-0.72-2.617-1.085-4.003-1.142l0,0l0,0l0,0
			l0.132-0.279c0.866-0.25,2.656-0.355,3.853-0.41l0,0l0,0l0,0l0,0l0,0l0,0l0,0c1.419-0.043,2.274,0.038,2.274,0.038l0,0l0,0l0,0
			C16.381,13.971,18.265,13.103,18.927,13.013z"/>
		<path fill="#00945E" d="M22.902,30.564c-0.657,0.869-1.215,1.565-1.936,2.365l0,0l0,0l0,0l0,0l0,0l0,0l0,0l0,0l0,0l0,0l0,0l0,0
			l0,0l0,0l0,0l0,0l0,0l0,0l0,0l0,0l0,0l0,0l0,0l0,0l0,0l0,0l0,0l0,0l0,0l0,0l0,0c-1.07,0.292-2.351,0.162-3.336,0.192l-0.129,0.276
			l0,0l0,0l0,0l0,0l0,0l0,0l0,0l0,0l0,0l0,0l0,0l0,0l0,0l0,0l0,0l0,0l0,0l0,0l0,0l0,0l0,0l0,0l0,0l0,0l0,0l0,0l0,0l0,0l0,0l0,0l0,0
			c0.742,0.379,1.469,0.605,2.247,0.765l0,0l0,0l0,0l0,0l0,0l0,0l0,0l0,0l0,0l0,0l0,0l0,0l0,0l0,0l0,0l0,0l0,0l0,0l0,0l0,0l0,0l0,0
			l0,0l0,0l0,0l0,0l0,0l0,0l0,0l0,0l0,0c-0.631,0.563-1.473,0.995-2.062,1.392l-0.131,0.274l0,0l0,0l0,0l0,0l0,0l0,0l0,0l0,0l0,0
			l0,0l0,0l0,0l0,0l0,0l0,0l0,0l0,0l0,0l0,0l0,0l0,0l0,0l0,0l0,0l0,0l0,0l0,0l0,0l0,0l0,0l0,0c1.269-0.3,2.936-0.826,4.178-1.548
			l0,0l0,0l0,0l0,0l0,0l0,0l0,0l0,0l0,0l0,0l0,0l0,0l0,0l0,0l0,0l0,0l0,0l0,0l0,0l0,0l0,0l0,0l0,0l0,0l0,0l0,0l0,0l0,0l0,0l0,0l0,0
			c0.647,0.027,1.253-0.02,1.693-0.104l0,0l0,0l0,0l0,0l0,0l0,0l0,0l0,0l0,0l0,0l0,0l0,0l0,0l0,0l0,0l0,0l0,0l0,0l0,0l0,0l0,0l0,0
			l0,0l0,0l0,0l0,0l0,0l0,0l0,0l0,0l0,0c0,0,0.134-0.282,0.134-0.274c-0.079-0.28-0.333-0.455-0.408-0.853l0,0l0,0l0,0l0,0l0,0l0,0
			l0,0l0,0l0,0l0,0l0,0l0,0l0,0l0,0l0,0l0,0l0,0l0,0l0,0l0,0l0,0l0,0l0,0l0,0l0,0l0,0l0,0l0,0l0,0l0,0l0,0
			c1.164-0.89,2.008-1.7,2.984-2.669l0,0l0,0l0,0l0,0l0,0l0,0l0,0l0,0l0,0l0,0l0,0l0,0l0,0l0,0l0,0l0,0l0,0l0,0l0,0l0,0l0,0l0,0l0,0
			l0,0l0,0l0,0l0,0l0,0l0,0l0,0l0,0l0.133-0.275c-0.962,0.654-2.129,1.553-3.254,2.072l0,0l0,0l0,0l0,0l0,0l0,0l0,0l0,0l0,0l0,0l0,0
			l0,0l0,0l0,0l0,0l0,0l0,0l0,0l0,0l0,0l0,0l0,0l0,0l0,0l0,0l0,0l0,0l0,0l0,0l0,0l0,0C22.967,31.639,22.931,31.173,22.902,30.564z"
			/>
	</g>
	<g>
		<path fill="#FFFFFF" d="M33.687,11.196c-2.503,1.454-3.272,1.572-5.993,3.18c1.587-1.695,2.135-2.42,3.119-3.836
			c-2.51,0.129-6.159,0.428-8.764,0.996l0,0l0,0l0,0c2.268-1.193,6.764-2.521,9.135-2.837c-0.551-0.748-5.002-3.126-6.111-3.583l0,0
			l0,0l0,0c3.527,0.272,7.835,1.568,9.923,2.827c0.823-0.251,1.677-0.266,3.208-0.398l0,0l0,0l0,0
			c-0.392,0.66-0.409,1.041-1.908,2.021l0,0l0,0l0,0c0.414,1.096-0.577,7.126-1.398,8.721l0,0l0,0l0,0
			C34.868,15.764,34.645,12.579,33.687,11.196z"/>
		<path fill="#FFFFFF" d="M15.355,32.814c-1.441-0.521-2.476-1.134-3.617-2.188l0,0l0,0l0,0l0,0l0,0l0,0l0,0l0,0l0,0l0,0l0,0l0,0
			l0,0l0,0l0,0l0,0l0,0l0,0l0,0l0,0l0,0l0,0l0,0l0,0l0,0l0,0l0,0l0,0l0,0l0,0l0,0c0.342-0.925,0.729-1.648,1.366-2.586l0,0l0,0l0,0
			l0,0l0,0l0,0l0,0l0,0l0,0l0,0l0,0l0,0l0,0l0,0l0,0l0,0l0,0l0,0l0,0l0,0l0,0l0,0l0,0l0,0l0,0l0,0l0,0l0,0l0,0l0,0l0,0
			c-1.169,0.172-2.032,0.306-3.038,0.496l0,0l0,0l0,0l0,0l0,0l0,0l0,0l0,0l0,0l0,0l0,0l0,0l0,0l0,0l0,0l0,0l0,0l0,0l0,0l0,0l0,0l0,0
			l0,0l0,0l0,0l0,0l0,0l0,0l0,0l0,0l0,0c-0.821-1.419-1.194-2.782-1.611-4.684l0,0l0,0l0,0l0,0l0,0l0,0l0,0l0,0l0,0l0,0l0,0l0,0l0,0
			l0,0l0,0c-0.223,2.016-0.309,3.457-0.02,5.057l0,0l0,0l0,0l0,0l0,0l0,0l0,0l0,0l0,0l0,0l0,0l0,0l0,0l0,0l0,0l0,0l0,0l0,0l0,0l0,0
			l0,0l0,0l0,0l0,0l0,0l0,0l0,0l0,0l0,0l0,0l0,0c-0.926,0.253-1.58,0.473-2.34,0.816l0,0l0,0l0,0l0,0l0,0l0,0l0,0l0,0l0,0l0,0l0,0
			l0,0l0,0l0,0l0,0l0,0l0,0l0,0l0,0l0,0l0,0l0,0l0,0l0,0l0,0l0,0l0,0l0,0l0,0l0,0l0,0c1.066,0.637,1.928,1.135,3.118,1.683l0,0l0,0
			l0,0l0,0l0,0l0,0l0,0l0,0l0,0l0,0l0,0l0,0l0,0l0,0l0,0l0,0l0,0l0,0l0,0l0,0l0,0l0,0l0,0l0,0l0,0l0,0l0,0l0,0l0,0l0,0l0,0
			c0.64,1.352,1.303,2.262,2.375,3.303l0,0l0,0l0,0l0,0l0,0l0,0l0,0l0,0l0,0l0,0l0,0l0,0l0,0l0,0l0,0l0,0l0,0l0,0l0,0l0,0l0,0l0,0
			l0,0l0,0l0,0l0,0l0,0l0,0l0,0l0,0l0,0c-0.25-0.884-0.316-1.59-0.215-2.526l0,0l0,0l0,0l0,0l0,0l0,0l0,0l0,0l0,0l0,0l0,0l0,0l0,0
			l0,0l0,0l0,0l0,0l0,0l0,0l0,0l0,0l0,0l0,0l0,0l0,0l0,0l0,0l0,0l0,0l0,0l0,0C12.703,32.572,13.843,32.777,15.355,32.814z"/>
		<path fill="#FFFFFF" d="M19.101,12.77L19.101,12.77L19.101,12.77L19.101,12.77L19.101,12.77c-0.447,0.575-0.968,1.645-1.109,2.142
			l0,0l0,0l0,0c3.706,0.494,6.681,2.373,6.681,2.373l0,0l0,0l0,0l0,0l0,0l0,0l0,0c-3.241-0.566-4.95-0.494-6.16-0.389l0,0l0,0l0,0
			c-1.203,0.11-1.447,0.251-1.447,0.251l0,0l0,0l0,0l0,0l0,0l0,0l0,0c-0.876,1.89-1.399,5.134-1.399,5.134l0,0l0,0l0,0l0,0l0,0l0,0
			l0,0c-0.593-1.402-1.443-4.209-1.443-4.209l0,0l0,0l0,0l0,0l0,0l0,0l0,0c-1.636,0.863-5.4,4.348-5.4,4.348l0,0l0,0l0,0l0,0l0,0
			l0,0l0,0c2.068-4.084,4.168-5.941,4.168-5.941l0,0l0,0l0,0l0,0l0,0l0,0l0,0c-0.722-0.722-2.618-1.082-4.001-1.144l0,0l0,0l0,0
			c0.716-0.288,2.563-0.625,3.981-0.689l0,0l0,0l0,0l0,0l0,0l0,0l0,0c1.42-0.043,2.277,0.037,2.277,0.037l0,0l0,0l0,0
			C16.515,13.696,18.437,12.867,19.101,12.77z"/>
		<path fill="#FFFFFF" d="M23.032,30.291c-0.653,0.871-1.216,1.559-1.943,2.355l0,0l0,0l0,0l0,0l0,0l0,0l0,0l0,0l0,0l0,0l0,0l0,0
			l0,0l0,0l0,0l0,0l0,0l0,0l0,0l0,0l0,0l0,0l0,0l0,0l0,0l0,0l0,0l0,0l0,0l0,0l0,0c-1.249,0.349-2.245,0.476-3.459,0.476l0,0l0,0l0,0
			l0,0l0,0l0,0l0,0l0,0l0,0l0,0l0,0l0,0l0,0l0,0l0,0l0,0l0,0l0,0l0,0l0,0l0,0l0,0l0,0l0,0l0,0l0,0l0,0l0,0l0,0l0,0l0,0
			c0.746,0.376,1.471,0.604,2.247,0.766l0,0l0,0l0,0l0,0l0,0l0,0l0,0l0,0l0,0l0,0l0,0l0,0l0,0l0,0l0,0l0,0l0,0l0,0l0,0l0,0l0,0l0,0
			l0,0l0,0l0,0l0,0l0,0l0,0l0,0l0,0l0,0c-0.775,0.699-1.434,1.188-2.19,1.667l0,0l0,0l0,0l0,0l0,0l0,0l0,0l0,0l0,0l0,0l0,0l0,0l0,0
			l0,0l0,0l0,0l0,0l0,0l0,0l0,0l0,0l0,0l0,0l0,0l0,0l0,0l0,0l0,0l0,0l0,0l0,0c1.268-0.297,2.932-0.826,4.174-1.551l0,0l0,0l0,0l0,0
			l0,0l0,0l0,0l0,0l0,0l0,0l0,0l0,0l0,0l0,0l0,0l0,0l0,0l0,0l0,0l0,0l0,0l0,0l0,0l0,0l0,0l0,0l0,0l0,0l0,0l0,0l0,0
			c0.648,0.023,1.256-0.016,1.699-0.104l0,0l0,0l0,0l0,0l0,0l0,0l0,0l0,0l0,0l0,0l0,0l0,0l0,0l0,0l0,0l0,0l0,0l0,0l0,0l0,0l0,0l0,0
			l0,0l0,0l0,0l0,0l0,0l0,0l0,0l0,0l0,0c-0.116-0.371-0.188-0.644-0.28-1.123l0,0l0,0l0,0l0,0l0,0l0,0l0,0l0,0l0,0l0,0l0,0l0,0l0,0
			l0,0l0,0l0,0l0,0l0,0l0,0l0,0l0,0l0,0l0,0l0,0l0,0l0,0l0,0l0,0l0,0l0,0l0,0c1.167-0.897,2.018-1.698,2.989-2.672l0,0l0,0l0,0l0,0
			l0,0l0,0l0,0l0,0l0,0l0,0l0,0l0,0l0,0l0,0l0,0l0,0l0,0l0,0l0,0l0,0l0,0l0,0l0,0l0,0l0,0l0,0l0,0l0,0l0,0l0,0l0,0
			c-1.034,0.709-1.928,1.241-3.122,1.797l0,0l0,0l0,0l0,0l0,0l0,0l0,0l0,0l0,0l0,0l0,0l0,0l0,0l0,0l0,0l0,0l0,0l0,0l0,0l0,0l0,0l0,0
			l0,0l0,0l0,0l0,0l0,0l0,0l0,0l0,0l0,0C23.091,31.361,23.062,30.904,23.032,30.291z"/>
	</g>
</g>
<g>
	
		<linearGradient id="SVGID_1_" gradientUnits="userSpaceOnUse" x1="1716.0547" y1="-1210.707" x2="1716.0547" y2="-1225.3875" gradientTransform="matrix(1 0 0 -1 -1517.5 -1207)">
		<stop  offset="0" style="stop-color:#46BDD5"/>
		<stop  offset="1" style="stop-color:#117FAA"/>
	</linearGradient>
	<path fill="url(#SVGID_1_)" d="M205.025,3.634h-12.94c-0.329,0-0.6,0.285-0.6,0.632v12.872c0,0.348,0.271,0.631,0.6,0.631h2.319
		l2.878,3.295c0.109,0.117,0.2,0.077,0.2-0.087v-3.208h7.543c0.33,0,0.602-0.282,0.602-0.631V4.268
		C205.628,3.92,205.355,3.634,205.025,3.634z"/>
	<g>
		<g>
			<rect x="193.888" y="6.318" fill="#1A6282" width="1.404" height="0.183"/>
			<rect x="195.292" y="9.811" fill="#1A6282" width="3.81" height="0.184"/>
			<rect x="199.102" y="6.318" fill="#1A6282" width="1.404" height="0.183"/>
		</g>
		<g>
			<rect x="195.292" y="11.363" fill="#5DC2DB" width="3.81" height="0.185"/>
			<rect x="193.888" y="14.905" fill="#5DC2DB" width="1.404" height="0.184"/>
			<rect x="199.102" y="14.905" fill="#5DC2DB" width="1.404" height="0.184"/>
		</g>
		<path fill="#FFFFFF" d="M193.888,6.5h1.404v3.494h3.81V6.5h1.404v8.405h-1.404v-3.542h-3.81v3.542h-1.404V6.5z"/>
		<rect x="201.846" y="6.208" fill="#1A6282" width="1.379" height="0.183"/>
		<rect x="201.846" y="12.921" fill="#5DC2DB" width="1.379" height="0.184"/>
		<path fill="#FFFFFF" d="M201.846,6.39h1.379v6.531h-1.379V6.39z"/>
		<rect x="201.846" y="13.546" fill="#1A6282" width="1.379" height="0.185"/>
		<rect x="201.846" y="15.015" fill="#5DC2DB" width="1.379" height="0.185"/>
		<path fill="#FFFFFF" d="M201.846,13.731h1.379v1.283h-1.379V13.731z"/>
	</g>
</g>
<g>
	
		<linearGradient id="SVGID_2_" gradientUnits="userSpaceOnUse" x1="1734.8438" y1="-1210.707" x2="1734.8438" y2="-1225.3875" gradientTransform="matrix(1 0 0 -1 -1517.5 -1207)">
		<stop  offset="0" style="stop-color:#9C9C9C"/>
		<stop  offset="1" style="stop-color:#636363"/>
	</linearGradient>
	<path fill="url(#SVGID_2_)" d="M223.814,3.634h-12.939c-0.329,0-0.602,0.285-0.602,0.632v12.872c0,0.348,0.271,0.631,0.602,0.631
		h2.318l2.879,3.295c0.107,0.117,0.199,0.077,0.199-0.087v-3.208h7.543c0.33,0,0.603-0.282,0.603-0.631V4.268
		C224.418,3.92,224.146,3.634,223.814,3.634z"/>
	<g>
		<g>
			<rect x="212.68" y="6.318" fill="#1A6282" width="1.402" height="0.183"/>
			<rect x="214.082" y="9.811" fill="#1A6282" width="3.811" height="0.184"/>
			<rect x="217.893" y="6.318" fill="#1A6282" width="1.403" height="0.183"/>
		</g>
		<g>
			<rect x="214.082" y="11.363" fill="#5DC2DB" width="3.811" height="0.185"/>
			<rect x="212.68" y="14.905" fill="#5DC2DB" width="1.402" height="0.184"/>
			<rect x="217.893" y="14.905" fill="#5DC2DB" width="1.403" height="0.184"/>
		</g>
		<path fill="#FFFFFF" d="M212.68,6.5h1.402v3.494h3.811V6.5h1.403v8.405h-1.403v-3.542h-3.811v3.542h-1.402V6.5z"/>
		<rect x="220.637" y="6.208" fill="#1A6282" width="1.379" height="0.183"/>
		<rect x="220.637" y="12.921" fill="#5DC2DB" width="1.379" height="0.184"/>
		<path fill="#FFFFFF" d="M220.637,6.39h1.379v6.531h-1.379V6.39z"/>
		<rect x="220.637" y="13.546" fill="#1A6282" width="1.379" height="0.185"/>
		<rect x="220.637" y="15.015" fill="#5DC2DB" width="1.379" height="0.185"/>
		<path fill="#FFFFFF" d="M220.637,13.731h1.379v1.283h-1.379V13.731z"/>
	</g>
</g>
<image overflow="visible" enable-background="new    " width="82" height="78" id="Nz2Rcf" xlink:href="694448528FF36EEE.jpg"  transform="matrix(0.7298 0.0531 -0.0563 0.7736 232.7754 0.0098)">
</image>
</svg>
